<svg width="22" height="22" viewBox="0 0 22 22" xmlns="http://www.w3.org/2000/svg">
    <path d="M4.00004 17.1564V19.5818C4.00004 19.9579 4.15222 20.3186 4.42305 20.5847C4.69388 20.8506 5.06128 21 5.44447 21H17.101C17.4841 21 17.8515 20.8506 18.1224 20.5847C18.3933 20.3186 18.5455 19.9579 18.5455 19.5818V17.1564C18.5443 15.9083 18.1244 14.6952 17.3507 13.7048C16.5771 12.7144 15.4927 12.0017 14.265 11.6772C12.3992 12.6669 10.1511 12.6669 8.28509 11.6772C7.05621 12 5.96996 12.7118 5.1952 13.7025C4.42045 14.6933 4.00017 15.9074 4 17.1564L4.00004 17.1564Z" />
    <path d="M16.6198 6.23716C16.6198 4.84835 16.058 3.5163 15.0579 2.53413C14.0577 1.55195 12.7013 1.00016 11.2867 1C9.87228 1 8.51567 1.55163 7.51538 2.53368C6.51509 3.51569 5.95312 4.8477 5.95312 6.23655C5.95312 7.62553 6.51493 8.95753 7.51509 9.93958C8.51538 10.9218 9.87195 11.4735 11.2864 11.4735C12.7004 11.472 14.056 10.9199 15.0558 9.93813C16.0556 8.95656 16.6181 7.62553 16.6198 6.23716Z" />
</svg>
