<svg width="22" height="22" viewBox="0 0 22 22" xmlns="http://www.w3.org/2000/svg">
    <g clip-path="url(#clip0_827_1242)">
        <path fill-rule="evenodd" clip-rule="evenodd"
            d="M2.8944 16.3283C3.92228 15.2936 5.31639 14.7124 6.77003 14.7124H16.514C17.9676 14.7124 19.3617 15.2936 20.3896 16.3283C21.4175 17.3629 21.9949 18.7661 21.9949 20.2293V22.6812C21.9949 23.0197 21.7223 23.2942 21.386 23.2942C21.0496 23.2942 20.777 23.0197 20.777 22.6812V20.2293C20.777 19.0913 20.3278 17.9998 19.5284 17.1951C18.7289 16.3904 17.6446 15.9384 16.514 15.9384H6.77003C5.63942 15.9384 4.55512 16.3904 3.75565 17.1951C2.95619 17.9998 2.50706 19.0913 2.50706 20.2293V22.6812C2.50706 23.0197 2.2344 23.2942 1.89806 23.2942C1.56172 23.2942 1.28906 23.0197 1.28906 22.6812V20.2293C1.28906 18.7661 1.86652 17.3629 2.8944 16.3283Z" />
        <path fill-rule="evenodd" clip-rule="evenodd"
            d="M11.645 1.22597C9.29066 1.22597 7.38206 3.14707 7.38206 5.51687C7.38206 7.88666 9.29066 9.80776 11.645 9.80776C13.9994 9.80776 15.908 7.88666 15.908 5.51687C15.908 3.14707 13.9994 1.22597 11.645 1.22597ZM6.16406 5.51687C6.16406 2.46998 8.61798 0 11.645 0C14.6721 0 17.126 2.46998 17.126 5.51687C17.126 8.56375 14.6721 11.0337 11.645 11.0337C8.61798 11.0337 6.16406 8.56375 6.16406 5.51687Z" />
    </g>
    <defs>
        <clipPath id="clip0_827_1242">
            <rect width="22" height="22" rx="5" />
        </clipPath>
    </defs>
</svg>