<svg width="22" height="22" viewBox="0 0 22 22"  xmlns="http://www.w3.org/2000/svg">
    <path d="M11 18.9727H13V5.79555L19.394 8.57289C19.574 8.65111 19.7274 8.78117 19.8351 8.94695C19.9428 9.11273 20.0002 9.30692 20 9.50543V18.9727H22V21H0V18.9727H2V5.44078C1.99998 5.24466 2.05608 5.05274 2.16151 4.8883C2.26695 4.72385 2.41718 4.59395 2.594 4.51432L10.297 1.04365C10.3732 1.00933 10.4567 0.99488 10.5398 1.00161C10.6229 1.00834 10.7031 1.03603 10.7729 1.08217C10.8428 1.12831 10.9002 1.19143 10.9398 1.26578C10.9795 1.34014 11.0002 1.42337 11 1.50789V18.9727Z" />
</svg>
