<svg width="22" height="22" viewBox="0 0 22 22"  xmlns="http://www.w3.org/2000/svg">
    <path d="M8 18H11V11.942L7 8.454L3 11.942V18H6V14H8V18ZM20 20H2C1.73478 20 1.48043 19.8946 1.29289 19.7071C1.10536 19.5196 1 19.2652 1 19V11.487C0.999984 11.3441 1.03059 11.2029 1.08976 11.0728C1.14892 10.9428 1.23528 10.8269 1.343 10.733L5 7.544V3C5 2.73478 5.10536 2.48043 5.29289 2.29289C5.48043 2.10536 5.73478 2 6 2H20C20.2652 2 20.5196 2.10536 20.7071 2.29289C20.8946 2.48043 21 2.73478 21 3V19C21 19.2652 20.8946 19.5196 20.7071 19.7071C20.5196 19.8946 20.2652 20 20 20ZM15 10V12H17V10H15ZM15 14V16H17V14H15ZM15 6V8H17V6H15ZM11 6V8H13V6H11Z" />
</svg>
