<svg width="22" height="22" viewBox="0 0 22 22"  xmlns="http://www.w3.org/2000/svg">
    <path d="M20.9513 16.4324C20.9189 16.5774 20.8649 16.7162 20.7912 16.844C20.2249 17.7967 19.5329 18.6642 18.7354 19.4219C18.4971 19.6183 18.2466 19.7984 17.9854 19.961L17.3854 20C17.0954 19.961 16.7994 19.9259 16.5155 19.8724C15.2322 19.6016 14.0009 19.1151 12.8713 18.4323C10.9335 17.3214 9.19969 15.9264 7.53761 14.4226C6.01521 13.077 4.62283 11.5833 3.37992 9.96207C2.52588 8.81812 1.77395 7.61664 1.31793 6.23819C1.20591 5.89878 1.12988 5.54691 1.03794 5.20949L1 4.58206C1.25404 3.80235 1.76601 3.20163 2.30395 2.62343C2.7039 2.19964 3.11585 1.80054 3.5359 1.40343C3.88759 1.0689 4.3753 0.930854 4.84389 1.03303C5.11159 1.07421 5.35294 1.22203 5.51586 1.44461C6.37576 2.6174 7.22576 3.7982 8.11579 4.94214H8.11566C8.29896 5.16746 8.41684 5.44143 8.45576 5.73248C8.49468 6.02366 8.45311 6.32016 8.33565 6.58809C8.22768 6.88229 8.08566 7.16416 7.95563 7.45018C7.80357 7.7814 7.65165 8.11479 7.48565 8.43986L7.48579 8.43971C7.41283 8.53945 7.42859 8.68053 7.52178 8.76061C8.12179 9.39219 8.69373 10.0526 9.32164 10.6596V10.6597C10.477 11.817 11.727 12.8702 13.0576 13.8075C13.1753 13.914 13.3518 13.914 13.4695 13.8075C13.9555 13.4681 14.4495 13.1389 14.9495 12.8179C15.298 12.5647 15.7264 12.4559 16.1494 12.5133C16.2786 12.5348 16.4031 12.5795 16.5174 12.6451C17.84 13.42 19.16 14.199 20.4772 14.9823C20.9013 15.2291 21.0993 15.8464 20.9513 16.4326L20.9513 16.4324Z" />
</svg>
