<svg width="22" height="22" viewBox="0 0 22 22"  xmlns="http://www.w3.org/2000/svg">
    <path fill-rule="evenodd" clip-rule="evenodd" d="M4.45625 0.209524C4.55272 0.0776255 4.70412 0 4.86491 0H17.125C17.2858 0 17.4372 0.0776255 17.5336 0.209524L20.5987 4.4C20.665 4.49067 20.7008 4.60095 20.7008 4.71429V19.381C20.7008 20.0756 20.4317 20.7417 19.9527 21.2329C19.4737 21.7241 18.8241 22 18.1466 22H3.84324C3.16583 22 2.51617 21.7241 2.03716 21.2329C1.55816 20.7417 1.28906 20.0756 1.28906 19.381V4.71429C1.28906 4.60095 1.32491 4.49067 1.39123 4.4L4.45625 0.209524ZM5.12033 1.04762L2.31073 4.88889V19.381C2.31073 19.7977 2.47219 20.1974 2.7596 20.4921C3.047 20.7868 3.4368 20.9524 3.84324 20.9524H18.1466C18.5531 20.9524 18.9429 20.7868 19.2303 20.4921C19.5177 20.1974 19.6792 19.7977 19.6792 19.381V4.88889L16.8696 1.04762H5.12033Z" />
    <path fill-rule="evenodd" clip-rule="evenodd" d="M1.28906 4.7157C1.28906 4.42641 1.51777 4.19189 1.7999 4.19189H20.19C20.4721 4.19189 20.7008 4.42641 20.7008 4.7157C20.7008 5.005 20.4721 5.23951 20.19 5.23951H1.7999C1.51777 5.23951 1.28906 5.005 1.28906 4.7157Z" />
    <path fill-rule="evenodd" clip-rule="evenodd" d="M6.90927 8.38281C7.1914 8.38281 7.42011 8.61733 7.42011 8.90662C7.42011 9.87908 7.79685 10.8117 8.46745 11.4993C9.13805 12.187 10.0476 12.5733 10.996 12.5733C11.9443 12.5733 12.8539 12.187 13.5245 11.4993C14.1951 10.8117 14.5718 9.87908 14.5718 8.90662C14.5718 8.61733 14.8005 8.38281 15.0826 8.38281C15.3648 8.38281 15.5935 8.61733 15.5935 8.90662C15.5935 10.1569 15.1091 11.356 14.2469 12.2401C13.3847 13.1242 12.2153 13.6209 10.996 13.6209C9.77662 13.6209 8.60722 13.1242 7.74502 12.2401C6.88282 11.356 6.39844 10.1569 6.39844 8.90662C6.39844 8.61733 6.62715 8.38281 6.90927 8.38281Z" />
</svg>
