<svg width="22" height="22" viewBox="0 0 22 22"  xmlns="http://www.w3.org/2000/svg">
    <path d="M21.4579 10.7848C21.118 10.4445 20.6661 10.2518 20.1858 10.2428L19.7024 10.2337L19.5762 9.76588C18.8298 7.00011 16.8152 4.83083 14.2641 3.81815C14.5699 4.36159 14.7446 4.98842 14.7446 5.6555C14.7446 7.72476 13.0648 9.40827 11 9.40827C8.93523 9.40827 7.25538 7.72476 7.25538 5.6555H8.54361C8.54361 7.01289 9.64556 8.11724 11 8.11724C12.3544 8.11724 13.4564 7.01289 13.4564 5.6555C13.4564 4.29811 12.3544 3.19376 11 3.19376C10.8748 3.19376 10.75 3.19643 10.6258 3.20164H10.5095C9.30096 3.19824 8.31881 2.21206 8.31881 1.00017H7.03059C7.03059 1.83409 7.32413 2.6004 7.81263 3.20164H7.18895C5.97759 3.20164 4.9921 2.214 4.9921 1H3.70387C3.70387 2.68914 4.90664 4.10183 6.49889 4.42364C4.54358 5.57645 3.04473 7.46479 2.42384 9.76588L2.29764 10.2337L1.81417 10.2428C1.33392 10.2518 0.882006 10.4445 0.541614 10.7852C0.192504 11.1354 0 11.6015 0 12.0969C0 13.1003 0.813902 13.932 1.81425 13.951L2.29768 13.9601L2.42389 14.4279C3.46804 18.2974 6.99464 21 11 21C15.0054 21 18.532 18.2974 19.5761 14.4279L19.7023 13.9601L20.1857 13.951C21.1861 13.932 22 13.1003 22 12.0969C22 11.6015 21.8075 11.1355 21.4579 10.7848ZM6.84139 11.3659C6.27934 11.3659 5.82206 11.8241 5.82206 12.3874H4.53383C4.53383 11.1123 5.56901 10.0748 6.84139 10.0748C8.11377 10.0748 9.14895 11.1122 9.14895 12.3874H7.86072C7.86076 11.8241 7.40349 11.3659 6.84139 11.3659ZM16.178 12.3874C16.178 11.8241 15.7207 11.3659 15.1587 11.3659C14.5966 11.3659 14.1393 11.8241 14.1393 12.3874H12.8511C12.8511 11.1123 13.8863 10.0748 15.1587 10.0748C16.431 10.0748 17.4662 11.1122 17.4662 12.3874H16.178Z" />
</svg>
