<svg width="22" height="22" viewBox="0 0 22 22" fill="none" xmlns="http://www.w3.org/2000/svg">
    <path fill-rule="evenodd" clip-rule="evenodd" d="M5.13491 5.13313C5.31242 4.95562 5.60022 4.95562 5.77773 5.13313L10.9109 10.2663L16.044 5.13313C16.2215 4.95562 16.5093 4.95562 16.6868 5.13313C16.8643 5.31064 16.8643 5.59845 16.6868 5.77596L11.2323 11.2305C11.0548 11.408 10.767 11.408 10.5895 11.2305L5.13491 5.77596C4.9574 5.59845 4.9574 5.31064 5.13491 5.13313Z" stroke-linecap="round" stroke-linejoin="round"/>
    <path fill-rule="evenodd" clip-rule="evenodd" d="M16.685 16.5941C16.5075 16.7717 16.2197 16.7717 16.0422 16.5941L10.9091 11.461L5.77596 16.5941C5.59845 16.7717 5.31064 16.7717 5.13313 16.5941C4.95562 16.4166 4.95562 16.1288 5.13313 15.9513L10.5877 10.4968C10.7652 10.3193 11.053 10.3193 11.2305 10.4968L16.685 15.9513C16.8626 16.1288 16.8626 16.4166 16.685 16.5941Z" stroke-linecap="round" stroke-linejoin="round"/>
</svg>
