<svg width="22" height="22" viewBox="0 0 22 22"  xmlns="http://www.w3.org/2000/svg">
    <path d="M2.2 6.6H19.8V20.9C19.8 21.1917 19.6841 21.4715 19.4778 21.6778C19.2715 21.8841 18.9917 22 18.7 22H3.3C3.00826 22 2.72847 21.8841 2.52218 21.6778C2.31589 21.4715 2.2 21.1917 2.2 20.9V6.6ZM5.5 3.3V1.1C5.5 0.808262 5.61589 0.528472 5.82218 0.322183C6.02847 0.115892 6.30826 0 6.6 0H15.4C15.6917 0 15.9715 0.115892 16.1778 0.322183C16.3841 0.528472 16.5 0.808262 16.5 1.1V3.3H22V5.5H0V3.3H5.5ZM7.7 2.2V3.3H14.3V2.2H7.7ZM7.7 11V17.6H9.9V11H7.7ZM12.1 11V17.6H14.3V11H12.1Z" />
</svg>
