<svg width="22" height="22" viewBox="0 0 22 22"  xmlns="http://www.w3.org/2000/svg">
    <path fill-rule="evenodd" clip-rule="evenodd" d="M2.5 10C2.77614 10 3 10.2239 3 10.5V20H18V10.5C18 10.2239 18.2239 10 18.5 10C18.7761 10 19 10.2239 19 10.5V20.5C19 20.7761 18.7761 21 18.5 21H2.5C2.22386 21 2 20.7761 2 20.5V10.5C2 10.2239 2.22386 10 2.5 10Z" />
    <path fill-rule="evenodd" clip-rule="evenodd" d="M0 5.5C0 5.22386 0.223858 5 0.5 5H20.5C20.7761 5 21 5.22386 21 5.5V10.5C21 10.7761 20.7761 11 20.5 11H0.5C0.223858 11 0 10.7761 0 10.5V5.5ZM1 6V10H20V6H1Z" />
    <path fill-rule="evenodd" clip-rule="evenodd" d="M10.5 5C10.7761 5 11 5.22386 11 5.5V20.5C11 20.7761 10.7761 21 10.5 21C10.2239 21 10 20.7761 10 20.5V5.5C10 5.22386 10.2239 5 10.5 5Z" />
    <path fill-rule="evenodd" clip-rule="evenodd" d="M6 1C5.46957 1 4.96086 1.21071 4.58579 1.58579C4.21071 1.96086 4 2.46957 4 3C4 3.53043 4.21071 4.03914 4.58579 4.41421C4.96086 4.78929 5.46957 5 6 5H9.85267C9.84007 4.95821 9.82665 4.91473 9.81239 4.8697C9.67041 4.42134 9.44772 3.82883 9.12439 3.24096C8.46616 2.04417 7.47195 1 6 1ZM10.5 5.5C10.9903 5.40194 10.9903 5.40176 10.9902 5.40156L10.9898 5.39973L10.989 5.3957L10.9862 5.38229C10.9838 5.37102 10.9804 5.3551 10.9759 5.33487C10.9669 5.2944 10.9534 5.23658 10.9353 5.16389C10.8989 5.0186 10.8435 4.81328 10.7657 4.5678C10.6108 4.07866 10.3648 3.42117 10.0006 2.75904C9.28384 1.45583 8.02805 0 6 0C5.20435 0 4.44129 0.31607 3.87868 0.87868C3.31607 1.44129 3 2.20435 3 3C3 3.79565 3.31607 4.55871 3.87868 5.12132C4.44129 5.68393 5.20435 6 6 6H10.5C10.6498 6 10.7917 5.93284 10.8867 5.81699C10.9816 5.70115 11.0196 5.54845 10.9902 5.40156L10.5 5.5Z" />
    <path fill-rule="evenodd" clip-rule="evenodd" d="M10.9994 2.75904C11.7162 1.45583 12.972 0 15 0C15.7957 0 16.5587 0.31607 17.1213 0.87868C17.6839 1.44129 18 2.20435 18 3C18 3.79565 17.6839 4.55871 17.1213 5.12132C16.5587 5.68393 15.7957 6 15 6H10.5C10.3502 6 10.2083 5.93284 10.1133 5.81699C10.0184 5.70115 9.98034 5.54883 10.0097 5.40194L10.5 5.5C10.0097 5.40194 10.0097 5.40214 10.0097 5.40194L10.0102 5.39973L10.011 5.3957L10.0138 5.38229C10.0162 5.37102 10.0196 5.3551 10.0241 5.33487C10.0331 5.2944 10.0466 5.23658 10.0647 5.16389C10.1011 5.0186 10.1565 4.81328 10.2343 4.5678C10.3892 4.07866 10.6352 3.42117 10.9994 2.75904ZM11.1473 5H15C15.5304 5 16.0391 4.78929 16.4142 4.41421C16.7893 4.03914 17 3.53043 17 3C17 2.46957 16.7893 1.96086 16.4142 1.58579C16.0391 1.21071 15.5304 1 15 1C13.5281 1 12.5338 2.04417 11.8756 3.24096C11.5523 3.82883 11.3296 4.42134 11.1876 4.8697C11.1734 4.91473 11.1599 4.95821 11.1473 5Z" />
</svg>
