<svg width="22" height="22" viewBox="0 0 22 22"  xmlns="http://www.w3.org/2000/svg">
    <g clip-path="url(#clip0_827_1250)">
        <path d="M21.6579 16.0342C21.451 16.0342 21.3131 16.1715 21.3131 16.3775C21.3131 17.6478 20.7959 18.8839 19.8993 19.7767C18.9683 20.7037 17.7613 21.1845 16.4854 21.1845C16.2785 21.1845 16.1406 21.3218 16.1406 21.5278C16.1406 21.7338 16.2785 21.8711 16.4854 21.8711C17.9681 21.8711 19.3474 21.2874 20.382 20.2573C21.4165 19.2272 22.0027 17.8196 22.0027 16.3431C22.0029 16.1715 21.8305 16.0342 21.6579 16.0342H21.6579Z" />
        <path d="M19.8991 16.0342C19.6922 16.0342 19.5543 16.1715 19.5543 16.3775C19.5543 17.2016 19.2441 17.9913 18.6579 18.575C18.0717 19.1586 17.2786 19.4676 16.4854 19.4676C16.2785 19.4676 16.1406 19.6049 16.1406 19.8109C16.1406 20.0169 16.313 20.1542 16.4854 20.1542C17.4854 20.1542 18.4509 19.7765 19.175 19.0555C19.8991 18.3346 20.2784 17.4074 20.2784 16.3775C20.2441 16.1715 20.0717 16.0342 19.8991 16.0342V16.0342Z" />
        <path d="M0.344923 5.87113C0.551829 5.87113 0.689713 5.73384 0.689713 5.52782C0.689713 4.22315 1.20691 3.02142 2.10356 2.09439C3.03454 1.2016 4.24149 0.686618 5.55179 0.686618C5.72418 0.686618 5.89658 0.549326 5.89658 0.343309C5.89658 0.137292 5.7587 3.40673e-08 5.55179 3.40673e-08C4.10344 -0.000162815 2.68976 0.583522 1.62073 1.61361C0.586206 2.64369 0 4.0513 0 5.52778C0 5.69944 0.172395 5.87109 0.344953 5.87109L0.344923 5.87113Z" />
        <path d="M5.55082 1.75098C4.55079 1.75098 3.58531 2.12865 2.86122 2.84965C2.13713 3.57063 1.75781 4.49777 1.75781 5.52769C1.75781 5.73371 1.8957 5.871 2.1026 5.871C2.30951 5.871 2.44739 5.73371 2.44739 5.52769C2.44739 4.70361 2.75767 3.91392 3.34387 3.33023C3.93007 2.74654 4.72317 2.4376 5.51631 2.4376C5.72321 2.4376 5.8611 2.30031 5.8611 2.09429C5.89561 1.88844 5.75772 1.75098 5.55082 1.75098V1.75098Z" />
        <path d="M21.2778 11.3301C21.3123 10.8837 21.1744 10.4717 20.8294 10.1971C20.3122 9.75071 19.4501 9.81943 18.9674 10.3L15.0709 14.1456C15.0019 14.2144 14.8985 14.2486 14.8295 14.2486C14.7604 14.2486 14.6571 14.2142 14.588 14.1456C14.4502 14.0083 14.4502 13.8023 14.588 13.6649L20.0364 8.2399C20.2778 7.99953 20.4157 7.72492 20.4502 7.41582C20.5192 6.93507 20.2778 6.45444 19.8985 6.17973C19.3813 5.80206 18.6571 5.90499 18.2089 6.31702L12.6914 11.7766C12.6224 11.8453 12.5191 11.8795 12.45 11.8795C12.381 11.8795 12.2776 11.8452 12.2086 11.7766C12.0707 11.6393 12.0707 11.4333 12.2086 11.2959L18.726 4.8069C18.9674 4.56652 19.1053 4.29192 19.1398 3.98281C19.1743 3.53641 19.0364 3.12437 18.6915 2.84979C18.1743 2.40339 17.3122 2.47212 16.8295 2.95272L10.3469 9.40748C10.2778 9.47621 10.1745 9.51041 10.1054 9.51041C10.0364 9.51041 9.93305 9.47605 9.86403 9.40748C9.72614 9.27019 9.72614 9.06417 9.86403 8.92673C9.86403 8.92673 15.3124 3.46757 15.3467 3.43297C15.5881 3.19259 15.726 2.84928 15.726 2.50599C15.726 2.16268 15.5881 1.81936 15.3467 1.579C14.8295 1.06402 13.9329 1.09825 13.4157 1.61337L6.69152 8.27451C7.10533 8.72091 7.82943 9.71664 7.86393 10.9182C7.86393 11.8452 7.48463 12.7036 6.65702 13.4934C6.588 13.5621 6.51913 13.5963 6.4156 13.5963C6.31223 13.5963 6.24321 13.5619 6.17419 13.4934C6.0363 13.3561 6.0363 13.15 6.17419 13.0126C6.8294 12.3946 7.17421 11.6736 7.17421 10.9526C7.1397 9.61358 6.0018 8.54914 5.9673 8.54914C5.82941 8.41184 5.82941 8.20583 5.93279 8.06838L5.9673 8.03402C5.9673 8.03402 5.9673 7.99966 6.00181 7.99966L8.41564 5.59619C8.48466 5.52747 8.45015 5.39018 8.34662 5.39018L7.31209 5.28725C6.34657 5.18432 5.34658 5.52763 4.65699 6.24862L2.86387 8.03405C1.72596 9.16707 0.863822 10.6092 0.415667 12.1886C-0.136036 14.1456 0.450179 16.2744 1.89835 17.7165L4.51911 20.326C5.3122 21.1157 6.27773 21.6307 7.34676 21.8711C8.13985 22.0428 9.002 22.0428 9.79496 21.8711C10.864 21.6307 11.8295 21.1158 12.5881 20.326L20.7607 12.1886C21.0709 11.9138 21.2435 11.6392 21.2779 11.3301L21.2778 11.3301Z" />
    </g>
    <defs>
        <clipPath id="clip0_827_1250">
            <rect width="22" height="22" rx="5" />
        </clipPath>
    </defs>
</svg>
