<svg width="22" height="22" viewBox="0 0 22 22"  xmlns="http://www.w3.org/2000/svg">
    <path d="M17 7H19C19.2652 7 19.5196 7.10536 19.7071 7.29289C19.8946 7.48043 20 7.73478 20 8V20C20 20.2652 19.8946 20.5196 19.7071 20.7071C19.5196 20.8946 19.2652 21 19 21H3C2.73478 21 2.48043 20.8946 2.29289 20.7071C2.10536 20.5196 2 20.2652 2 20V8C2 7.73478 2.10536 7.48043 2.29289 7.29289C2.48043 7.10536 2.73478 7 3 7H5V6C5 4.4087 5.63214 2.88258 6.75736 1.75736C7.88258 0.632141 9.4087 0 11 0C12.5913 0 14.1174 0.632141 15.2426 1.75736C16.3679 2.88258 17 4.4087 17 6V7ZM15 7V6C15 4.93913 14.5786 3.92172 13.8284 3.17157C13.0783 2.42143 12.0609 2 11 2C9.93913 2 8.92172 2.42143 8.17157 3.17157C7.42143 3.92172 7 4.93913 7 6V7H15ZM10 13V15H12V13H10ZM6 13V15H8V13H6ZM14 13V15H16V13H14Z" />
</svg>
