<svg width="22" height="22" viewBox="0 0 22 22"  xmlns="http://www.w3.org/2000/svg">
    <path d="M2.53854 4C2.23609 4 1.9585 4.09422 1.72114 4.25119L10.3833 12.5473C10.7626 12.9109 11.2545 12.9109 11.6333 12.5473L20.279 4.25119C20.0416 4.09422 19.7641 4 19.4616 4H2.53841H2.53854ZM1.09623 5.06951C1.03756 5.24076 1 5.41943 1 5.61241V16.3876C1 16.7151 1.09015 17.0167 1.24844 17.2706L7.37027 11.0888L1.09596 5.06909L1.09623 5.06951ZM20.904 5.06951L14.6458 11.0809L20.7516 17.2706C20.9099 17.0165 21 16.7148 21 16.3874V5.61218C21 5.41922 20.9624 5.24056 20.9038 5.06928L20.904 5.06951ZM13.9008 11.8022L12.3383 13.301C11.5942 14.0153 10.4222 14.0142 9.67792 13.301L8.11541 11.8103L2.05768 17.919C2.20917 17.9711 2.36997 18 2.53845 18H19.4616C19.6301 18 19.7909 17.9711 19.9424 17.919L13.9007 11.802L13.9008 11.8022Z" />
</svg>
