<svg width="22" height="22" viewBox="0 0 22 22"  xmlns="http://www.w3.org/2000/svg">
    <g clip-path="url(#clip0_883_11439)">
        <path d="M10.9963 14.2251C12.8669 14.2251 14.3833 12.7323 14.3833 10.8909C14.3833 9.04943 12.8669 7.55664 10.9963 7.55664C9.12576 7.55664 7.60938 9.04943 7.60938 10.8909C7.60938 12.7323 9.12576 14.2251 10.9963 14.2251Z" />
        <path d="M21.6626 9.96746C19.0591 6.87038 15.1182 3.88916 11 3.88916C6.8811 3.88916 2.93925 6.87246 0.33753 9.96746C-0.11251 10.5026 -0.11251 11.2795 0.33753 11.8146C0.991633 12.5927 2.36292 14.0948 4.19441 15.4073C8.80696 18.7128 13.183 18.7201 17.8057 15.4073C19.6372 14.0948 21.0085 12.5927 21.6626 11.8146C22.1113 11.2805 22.1136 10.5044 21.6626 9.96746ZM11 6.22312C13.6148 6.22312 15.7418 8.31702 15.7418 10.891C15.7418 13.4651 13.6148 15.559 11 15.559C8.38533 15.559 6.25833 13.4651 6.25833 10.891C6.25833 8.31702 8.38533 6.22312 11 6.22312Z" />
    </g>
    <defs>
        <clipPath id="clip0_883_11439">
            <rect width="22" height="22" fill="white"/>
        </clipPath>
    </defs>
</svg>
