<svg width="22" height="22" viewBox="0 0 22 22"  xmlns="http://www.w3.org/2000/svg">
    <path d="M5.5 9.94737C4.84996 9.94737 4.20628 9.81872 3.60572 9.56877C3.00516 9.31882 2.45947 8.95246 1.99982 8.49061C1.54017 8.02876 1.17556 7.48047 0.926796 6.87703C0.678035 6.2736 0.55 5.62684 0.55 4.97368C0.55 4.32053 0.678035 3.67377 0.926796 3.07034C1.17556 2.4669 1.54017 1.91861 1.99982 1.45676C2.45947 0.994909 3.00516 0.62855 3.60572 0.378599C4.20628 0.128648 4.84996 -9.73275e-09 5.5 0C6.81282 1.96562e-08 8.07187 0.524012 9.00018 1.45676C9.92848 2.3895 10.45 3.65458 10.45 4.97368C10.45 6.29279 9.92848 7.55786 9.00018 8.49061C8.07187 9.42336 6.81282 9.94737 5.5 9.94737ZM17.05 14.3684C15.883 14.3684 14.7639 13.9026 13.9387 13.0735C13.1136 12.2444 12.65 11.1199 12.65 9.94737C12.65 8.77483 13.1136 7.65032 13.9387 6.82121C14.7639 5.9921 15.883 5.52632 17.05 5.52632C18.217 5.52632 19.3361 5.9921 20.1613 6.82121C20.9864 7.65032 21.45 8.77483 21.45 9.94737C21.45 11.1199 20.9864 12.2444 20.1613 13.0735C19.3361 13.9026 18.217 14.3684 17.05 14.3684ZM17.05 15.4737C18.3628 15.4737 19.6219 15.9977 20.5502 16.9304C21.4785 17.8632 22 19.1283 22 20.4474V21H12.1V20.4474C12.1 19.1283 12.6215 17.8632 13.5498 16.9304C14.4781 15.9977 15.7372 15.4737 17.05 15.4737ZM5.5 11.0526C6.22227 11.0526 6.93747 11.1956 7.60476 11.4733C8.27205 11.751 8.87837 12.1581 9.38909 12.6713C9.89981 13.1844 10.3049 13.7936 10.5813 14.4641C10.8577 15.1346 11 15.8532 11 16.5789V21H0V16.5789C0 15.1133 0.579463 13.7076 1.61091 12.6713C2.64236 11.6349 4.04131 11.0526 5.5 11.0526Z" />
</svg>
