<svg width="22" height="22" viewBox="0 0 22 22"  xmlns="http://www.w3.org/2000/svg">
    <path d="M17.364 15.5563L11 22L4.636 15.5563C3.37734 14.2819 2.52019 12.6581 2.17293 10.8905C1.82567 9.12277 2.00391 7.29051 2.6851 5.62539C3.36629 3.96027 4.51984 2.53707 5.99988 1.53576C7.47992 0.534448 9.21998 0 11 0C12.78 0 14.5201 0.534448 16.0001 1.53576C17.4802 2.53707 18.6337 3.96027 19.3149 5.62539C19.9961 7.29051 20.1743 9.12277 19.8271 10.8905C19.4798 12.6581 18.6227 14.2819 17.364 15.5563ZM11 13.1627C12.0609 13.1627 13.0783 12.736 13.8284 11.9765C14.5786 11.2169 15 10.1868 15 9.11262C15 8.03847 14.5786 7.00831 13.8284 6.24877C13.0783 5.48923 12.0609 5.06253 11 5.06253C9.93914 5.06253 8.92172 5.48923 8.17158 6.24877C7.42143 7.00831 7 8.03847 7 9.11262C7 10.1868 7.42143 11.2169 8.17158 11.9765C8.92172 12.736 9.93914 13.1627 11 13.1627ZM11 11.1377C10.4696 11.1377 9.96086 10.9243 9.58579 10.5445C9.21072 10.1648 9 9.64969 9 9.11262C9 8.57554 9.21072 8.06047 9.58579 7.6807C9.96086 7.30093 10.4696 7.08757 11 7.08757C11.5304 7.08757 12.0391 7.30093 12.4142 7.6807C12.7893 8.06047 13 8.57554 13 9.11262C13 9.64969 12.7893 10.1648 12.4142 10.5445C12.0391 10.9243 11.5304 11.1377 11 11.1377Z" />
</svg>
