<svg width="22" height="22" viewBox="0 0 22 22"  xmlns="http://www.w3.org/2000/svg">
    <path d="M17.537 18.567C15.7224 20.1393 13.401 21.0033 11 21C5.477 21 1 16.523 1 11C1 5.477 5.477 1 11 1C16.523 1 21 5.477 21 11C21 13.136 20.33 15.116 19.19 16.74L16 11H19C18.9998 9.15621 18.3628 7.36906 17.1967 5.94089C16.0305 4.51272 14.4069 3.53119 12.6003 3.16236C10.7938 2.79352 8.91533 3.06002 7.28268 3.91677C5.65002 4.77351 4.36342 6.16791 3.64052 7.86408C2.91762 9.56025 2.80281 11.4541 3.31549 13.2251C3.82818 14.9962 4.93689 16.5358 6.45408 17.5836C7.97127 18.6313 9.80379 19.1228 11.6416 18.9749C13.4795 18.827 15.2099 18.0488 16.54 16.772L17.537 18.567Z" />
</svg>
