<svg width="22" height="22" viewBox="0 0 22 22"  xmlns="http://www.w3.org/2000/svg">
    <path fill-rule="evenodd" clip-rule="evenodd" d="M9.8 5.72C9.8 5.32235 10.1224 5 10.52 5H16.28C16.6776 5 17 5.32235 17 5.72V11.48C17 11.8776 16.6776 12.2 16.28 12.2C15.8824 12.2 15.56 11.8776 15.56 11.48V6.44H10.52C10.1224 6.44 9.8 6.11765 9.8 5.72Z" />
    <path fill-rule="evenodd" clip-rule="evenodd" d="M16.7891 5.21088C17.0703 5.49206 17.0703 5.94794 16.7891 6.22912L6.22912 16.7891C5.94794 17.0703 5.49206 17.0703 5.21088 16.7891C4.92971 16.5079 4.92971 16.0521 5.21088 15.7709L15.7709 5.21088C16.0521 4.92971 16.5079 4.92971 16.7891 5.21088Z" />
</svg>
