<svg width="22" height="22" viewBox="0 0 22 22"  xmlns="http://www.w3.org/2000/svg">
    <g clip-path="url(#clip0_827_1233)">
        <path d="M6.33518 15.7988C6.50042 15.3305 6.80686 14.925 7.21225 14.6381C7.61764 14.3513 8.10202 14.1973 8.59863 14.1973C9.09524 14.1973 9.57962 14.3513 9.98501 14.6381C10.3904 14.925 10.6968 15.3305 10.8621 15.7988H18.9961V17.3984H10.8621C10.6968 17.8667 10.3904 18.2723 9.98501 18.5591C9.57962 18.846 9.09524 19 8.59863 19C8.10202 19 7.61764 18.846 7.21225 18.5591C6.80686 18.2723 6.50042 17.8667 6.33518 17.3984H3V15.7988H6.33518ZM11.134 10.2002C11.2992 9.73188 11.6057 9.32636 12.0111 9.03951C12.4165 8.75267 12.9008 8.59863 13.3975 8.59863C13.8941 8.59863 14.3784 8.75267 14.7838 9.03951C15.1892 9.32636 15.4957 9.73188 15.6609 10.2002H18.9961V11.7998H15.6609C15.4957 12.2681 15.1892 12.6736 14.7838 12.9605C14.3784 13.2473 13.8941 13.4014 13.3975 13.4014C12.9008 13.4014 12.4165 13.2473 12.0111 12.9605C11.6057 12.6736 11.2992 12.2681 11.134 11.7998H3V10.2002H11.134ZM6.33518 4.60157C6.50042 4.13326 6.80686 3.72773 7.21225 3.44088C7.61764 3.15404 8.10202 3 8.59863 3C9.09524 3 9.57962 3.15404 9.98501 3.44088C10.3904 3.72773 10.6968 4.13326 10.8621 4.60157H18.9961V6.20118H10.8621C10.6968 6.66949 10.3904 7.07501 9.98501 7.36186C9.57962 7.6487 9.09524 7.80274 8.59863 7.80274C8.10202 7.80274 7.61764 7.6487 7.21225 7.36186C6.80686 7.07501 6.50042 6.66949 6.33518 6.20118H3V4.60157H6.33518Z" />
    </g>
    <defs>
        <clipPath id="clip0_827_1233">
            <rect width="16" height="16" fill="white" transform="translate(3 3)"/>
        </clipPath>
    </defs>
</svg>
