<svg width="22" height="22" viewBox="0 0 22 22"  xmlns="http://www.w3.org/2000/svg">
    <path d="M10.767 8.81168H1.44446C1.19907 8.81168 1 8.60038 1 8.33992C1 8.07947 1.19908 7.86816 1.44446 7.86816H10.767C11.0123 7.86816 11.2114 8.07947 11.2114 8.33992C11.2114 8.60038 11.0123 8.81168 10.767 8.81168Z" />
    <path d="M20.5533 8.81168H16.0226C15.7772 8.81168 15.5781 8.60038 15.5781 8.33992C15.5781 8.07947 15.7772 7.86816 16.0226 7.86816H20.5533C20.7987 7.86816 20.9978 8.07947 20.9978 8.33992C20.9978 8.60038 20.7987 8.81168 20.5533 8.81168Z" />
    <path d="M4.238 15.1315H1.44446C1.19907 15.1315 1 14.9202 1 14.6597C1 14.3993 1.19908 14.188 1.44446 14.188H4.238C4.48339 14.188 4.68246 14.3993 4.68246 14.6597C4.68246 14.9202 4.48338 15.1315 4.238 15.1315Z" />
    <path d="M20.551 15.1315H9.49134C9.24594 15.1315 9.04688 14.9202 9.04688 14.6597C9.04688 14.3993 9.24595 14.188 9.49134 14.188H20.551C20.7964 14.188 20.9954 14.3993 20.9954 14.6597C20.9954 14.9202 20.7964 15.1315 20.551 15.1315Z" />
    <path d="M14.2671 10.6801C13.0513 10.6801 12.0625 9.63047 12.0625 8.34003C12.0625 7.04985 13.0514 6 14.2671 6C15.4828 6 16.4718 7.04985 16.4718 8.34003C16.4718 9.63051 15.4828 10.6801 14.2671 10.6801ZM14.2671 6.94352C13.5416 6.94352 12.9514 7.57001 12.9514 8.34003C12.9514 9.11016 13.5417 9.73654 14.2671 9.73654C14.9927 9.73654 15.5829 9.11004 15.5829 8.34003C15.5829 7.5699 14.9926 6.94352 14.2671 6.94352Z" />
    <path d="M7.73589 17.0002C6.52007 17.0002 5.53125 15.9503 5.53125 14.6599C5.53125 13.3694 6.52036 12.3198 7.73589 12.3198C8.95142 12.3198 9.94053 13.3694 9.94053 14.6599C9.94067 15.9503 8.95157 17.0002 7.73589 17.0002ZM7.73589 13.2633C7.01032 13.2633 6.42018 13.8898 6.42018 14.6599C6.42018 15.4301 7.01043 16.0567 7.73589 16.0567C8.46146 16.0567 9.0516 15.4302 9.0516 14.6599C9.05174 13.8897 8.4615 13.2633 7.73589 13.2633Z" />
</svg>
