<svg width="22" height="22" viewBox="0 0 22 22"  xmlns="http://www.w3.org/2000/svg">
    <g clip-path="url(#clip0_827_1236)">
        <path d="M12.4638 16.1339C14.2141 16.1339 15.8925 15.4387 17.1301 14.2012C18.3676 12.9636 19.0628 11.2851 19.0628 9.53496C19.0604 8.03624 18.5425 6.58387 17.5964 5.42152L19.7961 3.22184L20.7419 4.18978C20.8795 4.32857 21.0669 4.40664 21.2625 4.40664C21.4581 4.40664 21.6455 4.32857 21.7831 4.18978C21.9219 4.05214 22 3.86474 22 3.66915C22 3.47356 21.9219 3.28617 21.7831 3.14852L20.8299 2.2027L21.7831 1.25688C21.9691 1.07079 22.0417 0.799767 21.9737 0.545736C21.9056 0.291563 21.7072 0.0931894 21.453 0.0251041C21.199 -0.0429811 20.928 0.029687 20.7419 0.215613L19.7961 1.16881L18.8502 0.215613C18.6641 0.0296878 18.3931 -0.0429811 18.1391 0.0251041C17.8849 0.0931894 17.6865 0.291554 17.6185 0.545736C17.5504 0.799747 17.623 1.07077 17.809 1.25688L18.7622 2.2027L16.5625 4.40238C15.4041 3.45932 13.9576 2.94183 12.4638 2.93593C10.1062 2.93593 7.92743 4.19372 6.74882 6.23544C5.56992 8.27716 5.56992 10.7928 6.74882 12.8345C7.92756 14.8762 10.1061 16.134 12.4638 16.134L12.4638 16.1339ZM0.732235 17.6004C0.92667 17.6004 1.11325 17.6776 1.25073 17.8151C1.38821 17.9526 1.46546 18.1392 1.46546 18.3336V19.4994L4.39836 16.5665C3.43633 15.3735 2.92257 13.8811 2.94678 12.3486C2.97084 10.8162 3.53123 9.34055 4.53026 8.17836C4.44482 8.62551 4.40063 9.07952 4.39835 9.53483C4.39835 11.674 5.24809 13.7255 6.76071 15.2381C8.27334 16.7507 10.3247 17.6004 12.464 17.6004C12.9139 17.6021 13.363 17.5628 13.8057 17.4831C12.6419 18.4801 11.1654 19.0379 9.63282 19.0594C8.10042 19.0808 6.60892 18.5646 5.4174 17.6004L2.4845 20.5333H3.66504C3.92707 20.5333 4.16912 20.6731 4.30005 20.9C4.43098 21.1268 4.43098 21.4063 4.30005 21.6332C4.16912 21.86 3.92706 21.9998 3.66504 21.9998H0.732136C0.635899 22.0023 0.540482 21.9821 0.453577 21.9412C0.382219 21.9059 0.315605 21.8615 0.255539 21.8091L0.211508 21.7505C0.166828 21.707 0.131809 21.6546 0.108894 21.5965C0.0940018 21.5762 0.081562 21.554 0.0722332 21.5306C0.0314808 21.4479 0.00660324 21.3584 -0.0010891 21.2666V18.3337C-0.0010891 18.1392 0.0761642 17.9527 0.213642 17.8152C0.351118 17.6777 0.537701 17.6005 0.732136 17.6005L0.732235 17.6004Z" />
    </g>
    <defs>
        <clipPath id="clip0_827_1236">
            <rect width="22" height="22" rx="5" fill="white"/>
        </clipPath>
    </defs>
</svg>
