<svg width="22" height="22" viewBox="0 0 22 22"  xmlns="http://www.w3.org/2000/svg">
    <path fill-rule="evenodd" clip-rule="evenodd" d="M3.75 5.5C3.41848 5.5 3.10054 5.6317 2.86612 5.86612C2.6317 6.10054 2.5 6.41848 2.5 6.75V17.75C2.5 18.0815 2.6317 18.3995 2.86612 18.6339C3.10054 18.8683 3.41848 19 3.75 19H14.75C15.0815 19 15.3995 18.8683 15.6339 18.6339C15.8683 18.3995 16 18.0815 16 17.75V11.75C16 11.3358 16.3358 11 16.75 11C17.1642 11 17.5 11.3358 17.5 11.75V17.75C17.5 18.4793 17.2103 19.1788 16.6945 19.6945C16.1788 20.2103 15.4793 20.5 14.75 20.5H3.75C3.02065 20.5 2.32118 20.2103 1.80546 19.6945C1.28973 19.1788 1 18.4793 1 17.75V6.75C1 6.02065 1.28973 5.32118 1.80546 4.80546C2.32118 4.28973 3.02065 4 3.75 4H9.75C10.1642 4 10.5 4.33579 10.5 4.75C10.5 5.16421 10.1642 5.5 9.75 5.5H3.75Z" />
    <path fill-rule="evenodd" clip-rule="evenodd" d="M13 1.75C13 1.33579 13.3358 1 13.75 1H19.75C20.1642 1 20.5 1.33579 20.5 1.75V7.75C20.5 8.16421 20.1642 8.5 19.75 8.5C19.3358 8.5 19 8.16421 19 7.75V2.5H13.75C13.3358 2.5 13 2.16421 13 1.75Z" />
    <path fill-rule="evenodd" clip-rule="evenodd" d="M20.2803 1.21967C20.5732 1.51256 20.5732 1.98744 20.2803 2.28033L9.28033 13.2803C8.98744 13.5732 8.51256 13.5732 8.21967 13.2803C7.92678 12.9874 7.92678 12.5126 8.21967 12.2197L19.2197 1.21967C19.5126 0.926777 19.9874 0.926777 20.2803 1.21967Z" />
</svg>
